<svg width="1000" height="138" viewBox="0 0 1000 138" fill="none" xmlns="http://www.w3.org/2000/svg">
<path fill-rule="evenodd" clip-rule="evenodd" d="M290.737 69.5001C290.737 31.6797 260.003 1.02027 222.091 1.02027H186.758L122.655 137.98H222.091C260.003 137.98 290.737 107.321 290.737 69.5001ZM100.446 137.98H68.6462C30.734 137.98 0 107.321 0 69.5001C0 31.6797 30.734 1.02027 68.6462 1.02027H164.549L100.446 137.98Z" fill="white"/>
<path d="M334.847 14.7716H355.835V129.924H334.847V14.7716Z" fill="white"/>
<path d="M382.484 45.8444C386.371 44.7366 391.423 43.6842 397.642 42.6872C403.86 41.6902 410.745 41.1918 418.296 41.1918C425.403 41.1918 431.344 42.1887 436.119 44.1827C440.894 46.0659 444.67 48.7799 447.446 52.3248C450.333 55.7588 452.332 59.9683 453.442 64.9533C454.664 69.8274 455.274 75.2001 455.274 81.0712V129.924H435.12V84.2283C435.12 79.5757 434.787 75.6432 434.12 72.4307C433.565 69.1074 432.566 66.4487 431.122 64.4548C429.79 62.35 427.902 60.8545 425.459 59.9683C423.127 58.9713 420.24 58.4729 416.797 58.4729C414.243 58.4729 411.578 58.639 408.802 58.9713C406.026 59.3037 403.972 59.5806 402.639 59.8022V129.924H382.484V45.8444Z" fill="white"/>
<path d="M495.744 86.2223C495.744 95.0844 497.854 102.063 502.074 107.159C506.293 112.144 512.123 114.636 519.563 114.636C522.784 114.636 525.504 114.526 527.725 114.304C530.057 113.972 531.945 113.639 533.388 113.307V63.4578C531.612 62.2392 529.224 61.1315 526.226 60.1345C523.339 59.0267 520.229 58.4729 516.898 58.4729C509.569 58.4729 504.183 60.9653 500.741 65.9502C497.41 70.9352 495.744 77.6925 495.744 86.2223ZM553.543 127.265C549.545 128.483 544.493 129.591 538.385 130.588C532.389 131.585 526.059 132.084 519.397 132.084C512.512 132.084 506.349 131.031 500.908 128.927C495.466 126.822 490.802 123.831 486.916 119.954C483.14 115.966 480.198 111.202 478.088 105.664C476.089 100.014 475.09 93.6997 475.09 86.7208C475.09 79.8527 475.922 73.6492 477.588 68.1104C479.365 62.4608 481.919 57.642 485.25 53.6541C488.582 49.6661 492.635 46.6198 497.41 44.515C502.185 42.2995 507.681 41.1918 513.9 41.1918C518.12 41.1918 521.84 41.6902 525.06 42.6872C528.28 43.6842 531.056 44.792 533.388 46.0105V4.30326L553.543 0.97998V127.265Z" fill="white"/>
<path d="M599.466 129.924H579.312V43.0196H599.466V129.924ZM601.632 17.5964C601.632 21.3628 600.41 24.3538 597.967 26.5693C595.524 28.7848 592.637 29.8926 589.306 29.8926C585.863 29.8926 582.921 28.7848 580.478 26.5693C578.035 24.3538 576.813 21.3628 576.813 17.5964C576.813 13.7192 578.035 10.6729 580.478 8.45738C582.921 6.24185 585.863 5.13409 589.306 5.13409C592.637 5.13409 595.524 6.24185 597.967 8.45738C600.41 10.6729 601.632 13.7192 601.632 17.5964Z" fill="white"/>
<path d="M674.816 61.1315C673.151 60.5776 670.819 60.0237 667.82 59.4698C664.933 58.8052 661.546 58.4729 657.66 58.4729C655.439 58.4729 653.051 58.6944 650.497 59.1375C648.054 59.5806 646.333 59.9683 645.334 60.3007V129.924H625.179V47.1737C629.066 45.7336 633.896 44.4043 639.67 43.1857C645.556 41.8564 652.052 41.1918 659.159 41.1918C660.491 41.1918 662.046 41.3025 663.823 41.5241C665.599 41.6349 667.376 41.8564 669.153 42.1887C670.93 42.4103 672.651 42.7426 674.317 43.1857C675.982 43.5181 677.315 43.8504 678.314 44.1827L674.816 61.1315Z" fill="white"/>
<path d="M687.529 86.887C687.529 79.2434 688.639 72.5414 690.86 66.7811C693.192 61.0207 696.246 56.2573 700.021 52.4909C703.797 48.6138 708.128 45.7336 713.014 43.8504C717.9 41.8564 722.897 40.8594 728.005 40.8594C739.998 40.8594 749.326 44.5704 755.988 51.9924C762.762 59.4144 766.149 70.4921 766.149 85.2253C766.149 86.3331 766.093 87.607 765.982 89.0471C765.982 90.3764 765.927 91.5949 765.816 92.7027H708.35C708.905 99.6816 711.348 105.11 715.679 108.987C720.121 112.753 726.506 114.636 734.834 114.636C739.72 114.636 744.162 114.193 748.16 113.307C752.268 112.421 755.489 111.479 757.82 110.482L760.486 126.933C759.375 127.486 757.82 128.096 755.822 128.76C753.934 129.314 751.713 129.813 749.159 130.256C746.716 130.81 744.051 131.253 741.164 131.585C738.276 131.917 735.334 132.084 732.336 132.084C724.673 132.084 718.011 130.976 712.347 128.76C706.684 126.434 702.02 123.277 698.356 119.289C694.691 115.19 691.971 110.427 690.194 104.999C688.417 99.4601 687.529 93.4228 687.529 86.887ZM745.994 77.9141C745.994 75.1447 745.606 72.5414 744.828 70.1044C744.051 67.5565 742.885 65.3964 741.33 63.6239C739.887 61.7407 738.054 60.3007 735.834 59.3037C733.724 58.1959 731.17 57.642 728.171 57.642C725.062 57.642 722.342 58.2513 720.01 59.4698C717.678 60.5776 715.679 62.0731 714.013 63.9563C712.458 65.8395 711.237 67.9996 710.349 70.4367C709.46 72.8738 708.85 75.3662 708.516 77.9141H745.994Z" fill="white"/>
<path d="M782.687 86.5546C782.687 80.1296 783.687 74.1477 785.686 68.6089C787.684 62.9593 790.516 58.0851 794.18 53.9864C797.956 49.8877 802.509 46.6752 807.839 44.3489C813.169 42.0226 819.166 40.8594 825.828 40.8594C834.046 40.8594 841.819 42.3549 849.148 45.3459L844.817 61.7961C842.485 60.7991 839.82 59.9683 836.822 59.3037C833.935 58.639 830.825 58.3067 827.494 58.3067C819.61 58.3067 813.613 60.7992 809.505 65.7841C805.396 70.6582 803.342 77.5818 803.342 86.5546C803.342 95.1952 805.285 102.063 809.172 107.159C813.058 112.144 819.61 114.636 828.827 114.636C832.269 114.636 835.656 114.304 838.987 113.639C842.319 112.975 845.206 112.144 847.649 111.147L850.48 127.763C848.26 128.871 844.873 129.868 840.32 130.754C835.878 131.641 831.27 132.084 826.495 132.084C819.055 132.084 812.558 130.976 807.006 128.76C801.565 126.434 797.012 123.277 793.348 119.289C789.794 115.19 787.129 110.372 785.352 104.833C783.576 99.1831 782.687 93.0904 782.687 86.5546Z" fill="white"/>
<path d="M865.085 20.0889L885.24 16.7656V43.0196H916.221V59.8022H885.24V95.1952C885.24 102.174 886.35 107.159 888.571 110.15C890.792 113.141 894.568 114.636 899.898 114.636C903.562 114.636 906.783 114.249 909.559 113.473C912.446 112.698 914.722 111.978 916.388 111.313L919.719 127.265C917.387 128.262 914.334 129.259 910.558 130.256C906.783 131.364 902.341 131.917 897.233 131.917C891.014 131.917 885.795 131.087 881.575 129.425C877.467 127.763 874.191 125.382 871.748 122.28C869.305 119.067 867.584 115.246 866.584 110.815C865.585 106.273 865.085 101.122 865.085 95.3613V20.0889Z" fill="white"/>
<path d="M966.353 115.8C972.572 115.8 977.291 115.467 980.512 114.803V92.5365C979.401 92.2042 977.791 91.8719 975.681 91.5396C973.571 91.2072 971.239 91.0411 968.685 91.0411C966.464 91.0411 964.188 91.2072 961.856 91.5396C959.635 91.8719 957.581 92.4811 955.693 93.3674C953.916 94.2536 952.473 95.5275 951.362 97.1891C950.252 98.74 949.696 100.734 949.696 103.171C949.696 107.934 951.196 111.258 954.194 113.141C957.192 114.913 961.245 115.8 966.353 115.8ZM964.688 40.8594C971.35 40.8594 976.958 41.6903 981.511 43.3519C986.064 45.0135 989.673 47.3398 992.338 50.3308C995.114 53.3218 997.057 56.9774 998.168 61.2976C999.389 65.5071 1000 70.1597 1000 75.2554V127.93C996.891 128.594 992.171 129.37 985.842 130.256C979.623 131.253 972.572 131.751 964.688 131.751C959.468 131.751 954.693 131.253 950.363 130.256C946.032 129.259 942.312 127.653 939.203 125.437C936.204 123.222 933.817 120.341 932.04 116.797C930.375 113.252 929.542 108.876 929.542 103.67C929.542 98.6846 930.486 94.4751 932.373 91.0411C934.372 87.607 937.037 84.8376 940.369 82.7328C943.7 80.5173 947.531 78.9665 951.862 78.0802C956.304 77.0833 960.912 76.5848 965.687 76.5848C967.908 76.5848 970.24 76.7509 972.683 77.0833C975.126 77.3048 977.735 77.7479 980.512 78.4126V75.0893C980.512 72.763 980.234 70.5475 979.679 68.4427C979.123 66.338 978.124 64.5102 976.68 62.9593C975.348 61.2976 973.516 60.0237 971.184 59.1375C968.963 58.2513 966.131 57.8082 962.689 57.8082C958.025 57.8082 953.75 58.1405 949.863 58.8052C945.976 59.4698 942.812 60.2453 940.369 61.1315L937.87 44.8474C940.424 43.9612 944.144 43.075 949.03 42.1887C953.916 41.3025 959.135 40.8594 964.688 40.8594Z" fill="white"/>
</svg>
